PathFileType	4	(x/y/z)	TRC_MarkerData\Passive\Passive_Pref0003.trc
DataRate	CameraRate	NumFrames	NumMarkers	Units	OrigDataRate	OrigDataStartFrame	OrigNumFrames
240	240	9	50	mm	240	113	300
Frame#	Time	R_AC			L_AC			HEAD			STERN			C7			L_IC			R_IC			L_ASIS			R_ASIS			L_GT			R_GT			L_PSIS			R_PSIS			SACRAL			L_LAT_KNEE			L_MED_KNEE			R_LAT_KNEE			R_MED_KNEE			L_LAT_ANK			L_MED_ANK			R_LAT_ANK			R_MED_ANK			L_THIGH_PROX_POST			L_THIGH_PROX_ANT			L_THIGH_DIST_ANT			L_THIGH_DIST_POST			R_THIGH_PROX_POST			R_THIGH_PROX_ANT			R_THIGH_DIST_ANT			R_THIGH_DIST_POST			L_SHANK_PROX_POST			L_SHANK_PROX_ANT			L_SHANK_DIST_ANT			L_SHANK_DIST_POST			R_SHANK_PROX_POST			R_SHANK_PROX_ANT			R_SHANK_DIST_ANT			R_SHANK_DIST_POST			L_HEEL_LAT			L_HEEL_SUP			L_HEEL_MED			R_HEEL_LAT			R_HEEL_SUP			R_HEEL_MED			L_1ST_MET			L_5TH_MET			L_TOE			R_1ST_MET			R_5TH_MET			R_TOE			
		X1	Y1	Z1	X2	Y2	Z2	X3	Y3	Z3	X4	Y4	Z4	X5	Y5	Z5	X6	Y6	Z6	X7	Y7	Z7	X8	Y8	Z8	X9	Y9	Z9	X10	Y10	Z10	X11	Y11	Z11	X12	Y12	Z12	X13	Y13	Z13	X14	Y14	Z14	X15	Y15	Z15	X16	Y16	Z16	X17	Y17	Z17	X18	Y18	Z18	X19	Y19	Z19	X20	Y20	Z20	X21	Y21	Z21	X22	Y22	Z22	X23	Y23	Z23	X24	Y24	Z24	X25	Y25	Z25	X26	Y26	Z26	X27	Y27	Z27	X28	Y28	Z28	X29	Y29	Z29	X30	Y30	Z30	X31	Y31	Z31	X32	Y32	Z32	X33	Y33	Z33	X34	Y34	Z34	X35	Y35	Z35	X36	Y36	Z36	X37	Y37	Z37	X38	Y38	Z38	X39	Y39	Z39	X40	Y40	Z40	X41	Y41	Z41	X42	Y42	Z42	X43	Y43	Z43	X44	Y44	Z44	X45	Y45	Z45	X46	Y46	Z46	X47	Y47	Z47	X48	Y48	Z48	X49	Y49	Z49	X50	Y50	Z50	

113	0.46823	-294.67	1535.1	430.67	-293.21	1563.4	40.327	-172.86	1843.5	255.37	-195.89	1505.4	237.69	-339.61	1594.6	236.9	-306.16	1101	75.947	-305.04	1123.9	416.25	-242.42	1036.8	107.09	-235.24	1046.9	377.21	-340.74	963.65	60.481	-312.35	978.15	435.56	-446.51	1067.2	202.96	-436.59	1064.9	310.53	-454.65	1041.3	258.42	-382.56	560.81	104.08	-373.07	571.58	240.41	-151.07	583.43	425.31	-117.54	582.36	296.48	-518.12	129.36	130.75	-526.25	134.61	208.03	-155.18	118.2	385.93	-112.57	147.01	295.56	-387.55	819.92	79.865	-324.63	802.52	73.183	-337.3	729.09	84.707	-399.23	747.61	91.28	-266.4	802.09	439.08	-203.52	828.94	443.38	-179.49	758.57	440.88	-241.45	730.69	432.7	-387.01	507.76	113.39	-343.66	515.6	128.11	-352.32	466.53	135.89	-401.59	455.98	120.27	-216.81	424.35	407.33	-153.28	436.78	435.53	-141.15	363.89	428.25	-203.79	349.19	401.97	-589.02	56.921	130.55	-601.28	84.198	163.92	-596.1	53.182	196.69	-201.88	52.43	345.42	-203.86	78.245	309.35	-176	57.063	283.1	-373.68	48.971	242.68	-381.31	42.763	136.8	-319.42	55.401	223.18	38.017	104.34	346.16	-18.758	76.587	440.6	63.801	119.72	406.38
114	0.47241	-288.71	1534.5	431.01	-287.64	1562.9	40.695	-167.31	1843	255.81	-190.16	1504.8	237.92	-333.83	1594	237.3	-301.2	1100.5	76.335	-299.15	1123.3	416.61	-237.52	1036.2	107.25	-229.42	1046.2	377.34	-336.16	963.3	60.816	-306.57	977.49	435.87	-441.12	1066.9	203.76	-430.96	1064.5	311.26	-449.23	1041.1	259.21	-379.87	560.66	104.3	-370.31	571.32	240.64	-145.95	582.51	425.02	-112.89	581.44	296.22	-517.67	129.79	130.79	-525.76	135	208.11	-138.41	117.09	386.93	-96.858	146.83	296.45	-383.6	819.93	80.207	-320.76	802.23	73.469	-333.78	728.86	84.982	-395.62	747.65	91.577	-261.37	801.16	439.13	-198.37	827.82	443.49	-174.56	757.4	440.8	-236.59	729.73	432.57	-384.61	507.62	113.59	-341.22	515.22	128.33	-350.12	466.19	136.07	-399.45	455.91	120.46	-208.11	421.77	407.66	-144.87	435.88	435.7	-130.87	363.3	428.59	-193.2	346.94	402.4	-588.88	57.428	130.6	-601.06	84.723	163.98	-595.96	53.685	196.74	-183.5	49.952	346.67	-186.28	75.567	310.54	-157.8	55.146	284.3	-373.55	48.874	242.71	-381.23	42.747	136.84	-319.28	55.152	223.21	54.892	108.45	346.89	-0.9457	79.435	441.46	80.339	124.64	407.06
115	0.47659	-282.73	1533.8	431.37	-282.05	1562.3	41.076	-161.76	1842.4	256.26	-184.41	1504.1	238.16	-328.03	1593.4	237.72	-296.23	1100	76.725	-293.23	1122.6	416.97	-232.62	1035.5	107.41	-223.55	1045.4	377.47	-331.56	962.93	61.152	-300.75	976.8	436.17	-435.69	1066.6	204.57	-425.28	1064.1	311.99	-443.78	1040.8	260.01	-377.16	560.49	104.52	-367.53	571.03	240.88	-140.88	581.53	424.73	-108.32	580.44	295.94	-517.21	130.23	130.82	-525.26	135.4	208.19	-121.76	116.2	387.87	-81.331	146.86	297.27	-379.62	819.93	80.55	-316.87	801.92	73.754	-330.23	728.62	85.258	-391.99	747.68	91.874	-256.33	800.19	439.18	-193.21	826.64	443.62	-169.64	756.16	440.73	-231.76	728.71	432.44	-382.18	507.48	113.79	-338.77	514.81	128.55	-347.91	465.85	136.26	-397.29	455.84	120.64	-199.45	419.24	408	-136.53	435	435.86	-120.69	362.78	428.91	-182.66	344.78	402.84	-588.74	57.943	130.65	-600.84	85.252	164.04	-595.82	54.194	196.78	-165.24	47.754	347.89	-168.84	73.156	311.7	-139.78	53.514	285.46	-373.42	48.779	242.75	-381.15	42.734	136.87	-319.13	54.904	223.24	71.486	112.76	347.48	16.667	82.499	442.19	96.607	129.74	407.58
116	0.48077	-276.73	1533.2	431.74	-276.44	1561.7	41.47	-156.21	1841.8	256.71	-178.64	1503.4	238.41	-322.22	1592.8	238.15	-291.24	1099.5	77.116	-287.26	1121.9	417.33	-227.7	1034.9	107.56	-217.64	1044.6	377.6	-326.95	962.54	61.49	-294.87	976.06	436.47	-430.22	1066.2	205.39	-419.56	1063.7	312.73	-438.3	1040.4	260.82	-374.43	560.32	104.74	-364.71	570.74	241.12	-135.84	580.51	424.45	-103.83	579.37	295.64	-516.75	130.67	130.87	-524.77	135.8	208.27	-105.26	115.53	388.75	-66.008	147.09	298.04	-375.61	819.9	80.894	-312.94	801.61	74.039	-326.66	728.36	85.536	-388.33	747.69	92.174	-251.28	799.17	439.24	-188.04	825.39	443.75	-164.73	754.84	440.66	-226.94	727.65	432.33	-379.74	507.32	113.99	-336.3	514.4	128.78	-345.68	465.5	136.45	-395.11	455.75	120.84	-190.81	416.76	408.35	-128.25	434.16	436.01	-110.6	362.32	429.21	-172.18	342.72	403.29	-588.6	58.466	130.7	-600.62	85.787	164.1	-595.67	54.708	196.83	-147.12	45.832	349.05	-151.55	71.009	312.82	-121.97	52.165	286.56	-373.29	48.687	242.78	-381.07	42.723	136.91	-318.98	54.66	223.27	87.779	117.25	347.94	34.054	85.76	442.81	112.59	135	407.97
117	0.48495	-270.71	1532.5	432.13	-270.8	1561.1	41.878	-150.65	1841.2	257.17	-172.86	1502.7	238.68	-316.38	1592.1	238.6	-286.24	1098.9	77.506	-281.25	1121.2	417.7	-222.77	1034.2	107.71	-211.7	1043.8	377.71	-322.31	962.13	61.829	-288.93	975.28	436.75	-424.73	1065.8	206.22	-413.81	1063.2	313.48	-432.78	1040.1	261.64	-371.67	560.12	104.97	-361.87	570.42	241.37	-130.84	579.45	424.17	-99.407	578.24	295.32	-516.28	131.11	130.91	-524.29	136.2	208.35	-88.943	115.08	389.56	-50.906	147.52	298.74	-371.58	819.86	81.239	-308.99	801.27	74.325	-323.06	728.08	85.816	-384.64	747.69	92.475	-246.2	798.12	439.32	-182.84	824.09	443.89	-159.8	753.46	440.6	-222.12	726.54	432.22	-377.27	507.15	114.2	-333.8	513.96	129.02	-343.43	465.13	136.64	-392.91	455.66	121.03	-182.22	414.35	408.71	-120.03	433.34	436.16	-100.61	361.93	429.49	-161.77	340.76	403.72	-588.46	58.998	130.75	-600.39	86.328	164.17	-595.52	55.229	196.88	-129.18	44.182	350.14	-134.45	69.124	313.87	-104.39	51.091	287.59	-373.16	48.597	242.8	-380.99	42.715	136.95	-318.83	54.417	223.29	103.75	121.91	348.27	51.185	89.195	443.3	128.26	140.39	408.22
118	0.48913	-264.66	1531.8	432.53	-265.15	1560.4	42.302	-145.1	1840.5	257.63	-167.06	1502	238.96	-310.53	1591.4	239.07	-281.23	1098.3	77.894	-275.21	1120.4	418.06	-217.81	1033.5	107.84	-205.71	1043	377.81	-317.65	961.69	62.171	-282.93	974.46	437.04	-419.21	1065.4	207.05	-408.01	1062.7	314.23	-427.22	1039.7	262.46	-368.88	559.92	105.2	-358.99	570.09	241.62	-125.85	578.35	423.91	-95.03	577.06	294.98	-515.81	131.56	130.96	-523.8	136.61	208.44	-72.842	114.83	390.31	-36.041	148.13	299.36	-367.52	819.79	81.585	-305.01	800.92	74.613	-319.43	727.78	86.098	-380.92	747.67	92.779	-241.08	797.04	439.41	-177.6	822.75	444.04	-154.85	752.03	440.56	-217.28	725.4	432.14	-374.78	506.97	114.41	-331.28	513.52	129.26	-341.15	464.75	136.83	-390.68	455.56	121.24	-173.67	412	409.07	-111.89	432.56	436.3	-90.729	361.61	429.75	-151.43	338.91	404.14	-588.31	59.54	130.81	-600.16	86.876	164.23	-595.36	55.758	196.94	-111.45	42.796	351.16	-117.57	67.495	314.86	-87.072	50.284	288.54	-373.03	48.509	242.83	-380.9	42.71	136.99	-318.68	54.177	223.31	119.39	126.7	348.48	68.033	92.775	443.68	143.59	145.89	408.35
119	0.49331	-258.6	1531.1	432.95	-259.47	1559.7	42.742	-139.54	1839.9	258.1	-161.24	1501.2	239.26	-304.66	1590.7	239.56	-276.2	1097.7	78.278	-269.12	1119.6	418.43	-212.83	1032.8	107.97	-199.68	1042.1	377.9	-312.97	961.23	62.515	-276.87	973.61	437.31	-413.67	1064.9	207.89	-402.17	1062.2	314.99	-421.64	1039.3	263.3	-366.07	559.7	105.44	-356.08	569.75	241.88	-120.86	577.22	423.67	-90.687	575.84	294.64	-515.33	132.01	131.01	-523.31	137.02	208.53	-56.986	114.76	390.98	-21.431	148.91	299.91	-363.42	819.71	81.934	-300.99	800.55	74.905	-315.77	727.47	86.383	-377.16	747.63	93.085	-235.91	795.94	439.53	-172.32	821.37	444.19	-149.87	750.56	440.54	-212.42	724.23	432.09	-372.25	506.77	114.63	-328.73	513.05	129.5	-338.85	464.36	137.04	-388.43	455.45	121.44	-165.18	409.72	409.43	-103.82	431.8	436.43	-80.969	361.34	429.98	-141.18	337.15	404.55	-588.16	60.092	130.87	-599.92	87.432	164.3	-595.2	56.297	196.99	-93.967	41.664	352.07	-100.92	66.114	315.77	-70.031	49.73	289.39	-372.89	48.423	242.86	-380.82	42.707	137.02	-318.53	53.939	223.33	134.67	131.59	348.59	84.568	96.471	443.94	158.59	151.45	408.37
120	0.49749	-252.51	1530.3	433.4	-253.77	1559	43.198	-133.98	1839.2	258.58	-155.4	1500.5	239.57	-298.78	1589.9	240.06	-271.16	1097.1	78.658	-262.99	1118.8	418.8	-207.82	1032	108.1	-193.62	1041.3	377.97	-308.26	960.75	62.862	-270.75	972.73	437.58	-408.1	1064.4	208.73	-396.3	1061.6	315.76	-416.01	1038.8	264.13	-363.22	559.47	105.68	-353.12	569.39	242.14	-115.87	576.06	423.45	-86.36	574.59	294.29	-514.84	132.47	131.07	-522.82	137.44	208.62	-41.405	114.87	391.56	-7.0912	149.84	300.38	-359.3	819.6	82.284	-296.94	800.16	75.2	-312.07	727.13	86.67	-373.37	747.58	93.394	-230.69	794.82	439.66	-166.98	819.97	444.36	-144.85	749.06	440.53	-207.52	723.05	432.06	-369.7	506.57	114.85	-326.15	512.58	129.74	-336.52	463.96	137.24	-386.16	455.33	121.66	-156.73	407.52	409.77	-95.829	431.08	436.55	-71.335	361.12	430.19	-131.03	335.5	404.92	-588.01	60.657	130.93	-599.68	87.997	164.37	-595.04	56.847	197.05	-76.759	40.77	352.88	-84.536	64.97	316.58	-53.292	49.414	290.13	-372.76	48.339	242.89	-380.74	42.705	137.06	-318.38	53.702	223.35	149.58	136.55	348.59	100.76	100.25	444.1	173.21	157.03	408.29
121	0.50167	-246.4	1529.5	433.86	-248.05	1558.2	43.672	-128.42	1838.5	259.07	-149.55	1499.7	239.9	-292.88	1589.1	240.59	-266.1	1096.4	79.031	-256.81	1118	419.16	-202.78	1031.3	108.22	-187.52	1040.4	378.04	-303.52	960.24	63.214	-264.58	971.83	437.84	-402.51	1063.9	209.58	-390.38	1061	316.53	-410.35	1038.3	264.98	-360.34	559.22	105.93	-350.13	569.01	242.41	-110.86	574.89	423.25	-82.029	573.32	293.95	-514.34	132.94	131.13	-522.33	137.87	208.72	-26.129	115.13	392.06	6.9623	150.9	300.76	-355.14	819.46	82.638	-292.86	799.75	75.501	-308.34	726.77	86.96	-369.54	747.51	93.708	-225.4	793.69	439.82	-161.58	818.56	444.53	-139.76	747.54	440.53	-202.56	721.85	432.06	-367.11	506.35	115.08	-323.54	512.09	129.99	-334.16	463.54	137.45	-383.85	455.2	121.88	-148.35	405.4	410.08	-87.914	430.37	436.66	-61.835	360.95	430.37	-121	333.94	405.27	-587.85	61.235	131.01	-599.44	88.572	164.43	-594.88	57.41	197.11	-59.865	40.097	353.57	-68.449	64.048	317.28	-36.881	49.319	290.76	-372.62	48.257	242.91	-380.65	42.706	137.1	-318.22	53.465	223.36	164.11	141.54	348.51	116.59	104.07	444.16	187.46	162.61	408.13
